<?xml version="1.0" standalone="no"?>
<!DOCTYPE svg PUBLIC "-//W3C//DTD SVG 20010904//EN"
 "http://www.w3.org/TR/2001/REC-SVG-20010904/DTD/svg10.dtd">
<svg version="1.0" xmlns="http://www.w3.org/2000/svg"
 width="627.000000pt" height="150.000000pt" viewBox="0 0 627.000000 150.000000"
 preserveAspectRatio="xMidYMid meet">
<metadata>
Created by potrace 1.16, written by Peter Selinger 2001-2019
</metadata>
<g transform="translate(0.000000,150.000000) scale(0.100000,-0.100000)"
fill="#000000" stroke="none">
<path d="M695 1485 c-92 -33 -135 -129 -100 -220 9 -25 27 -53 41 -64 23 -18
24 -22 24 -162 l-1 -144 -29 -32 -30 -33 -138 0 c-136 0 -139 0 -163 26 -36
38 -77 56 -129 56 -142 0 -219 -156 -134 -270 33 -43 73 -62 131 -62 l48 0
185 -185 c179 -179 184 -186 182 -222 -4 -50 33 -121 77 -150 47 -32 135 -32
181 -1 58 40 75 72 75 143 0 49 -5 70 -21 92 -35 47 -82 73 -133 73 l-46 0
-165 165 -165 165 109 0 c104 0 109 -1 128 -25 30 -38 71 -55 131 -55 148 0
221 169 121 279 l-34 38 0 109 0 109 163 -163 162 -162 1 -47 c1 -97 58 -155
159 -161 50 -3 66 0 95 20 54 37 80 83 80 141 0 98 -66 167 -163 169 -41 1
-47 6 -229 187 -187 185 -188 186 -188 230 0 116 -115 196 -225 156z"/>
<path d="M1820 745 l0 -585 80 0 81 0 -3 440 c-3 402 -2 438 13 422 9 -9 89
-99 178 -199 l163 -183 51 0 52 0 169 191 c93 104 172 192 176 194 3 2 4 -192
2 -431 l-5 -434 82 0 81 0 0 585 0 585 -78 0 -79 0 -199 -235 c-174 -206 -200
-233 -214 -220 -8 7 -98 113 -200 234 l-185 220 -82 0 -83 1 0 -585z"/>
<path d="M5361 1316 c-48 -26 -64 -91 -37 -145 30 -57 116 -69 168 -23 27 25
31 36 31 77 0 41 -4 52 -31 77 -36 31 -89 37 -131 14z"/>
<path d="M5010 1099 l0 -221 -37 32 c-64 56 -116 74 -218 75 -82 0 -96 -3
-157 -33 -241 -118 -294 -470 -102 -682 18 -20 62 -52 96 -71 59 -31 69 -34
158 -34 107 0 157 17 223 75 l37 32 0 -46 0 -46 75 0 75 0 0 570 0 570 -75 0
-75 0 0 -221z m-127 -281 c49 -27 102 -94 117 -146 5 -20 10 -68 10 -107 0
-283 -338 -363 -452 -107 -26 58 -26 176 0 234 62 139 202 194 325 126z"/>
<path d="M3279 977 c-25 -7 -66 -25 -91 -40 -48 -28 -112 -93 -104 -106 3 -4
32 -24 66 -45 l61 -38 43 40 c93 86 222 81 303 -11 29 -33 53 -100 40 -113 -3
-3 -31 2 -62 11 -84 25 -252 17 -320 -13 -104 -47 -154 -123 -155 -233 0 -165
137 -280 319 -267 77 6 141 35 189 85 l32 34 0 -50 0 -51 76 0 75 0 -3 288
c-3 275 -4 289 -26 337 -32 70 -95 131 -162 156 -69 27 -215 35 -281 16z m278
-437 c43 -19 45 -21 39 -52 -11 -54 -58 -120 -108 -151 -84 -52 -177 -46 -238
15 -24 24 -30 38 -30 72 0 66 48 114 135 137 47 13 151 2 202 -21z"/>
<path d="M4225 981 c-52 -13 -111 -49 -143 -86 l-32 -36 0 51 0 50 -75 0 -75
0 0 -390 0 -390 80 0 80 0 0 243 c0 272 5 294 73 354 47 41 98 57 161 49 l51
-6 17 58 c9 32 20 65 23 74 4 9 0 18 -8 21 -28 10 -123 16 -152 8z"/>
<path d="M5847 980 c-60 -15 -111 -45 -150 -89 -40 -45 -52 -86 -45 -167 9
-104 84 -160 277 -209 121 -30 165 -53 179 -94 14 -40 -4 -71 -58 -99 -92 -47
-211 -12 -262 78 -13 22 -28 40 -35 40 -6 0 -39 -12 -71 -26 -60 -26 -60 -26
-50 -55 17 -49 104 -136 166 -166 51 -25 68 -28 162 -28 121 0 177 19 244 83
49 47 66 87 66 156 0 68 -12 102 -53 144 -44 47 -88 67 -219 102 -134 37 -155
46 -182 83 l-20 27 20 28 c61 82 194 82 276 0 l41 -41 56 23 c73 30 75 32 58
67 -24 46 -77 93 -136 121 -60 28 -195 39 -264 22z"/>
<path d="M5340 570 l0 -390 80 0 80 0 0 390 0 390 -80 0 -80 0 0 -390z"/>
</g>
</svg>
